<svg width="50" height="50" xmlns="http://www.w3.org/2000/svg" data-name="Layer 1" viewBox="0 0 1024 1280" x="0px" y="0px"><path fill="#1DC37E" d="M701.416727 406.737455l-219.461818 256a34.792727 34.792727 0 0 1-25.949091 12.171636h-0.535273a34.909091 34.909091 0 0 1-25.786181-11.357091l-106.356364-116.363636a34.909091 34.909091 0 1 1 51.549091-47.080728l79.755636 87.249455 193.792-226.071273a34.909091 34.909091 0 1 1 52.992 45.451637M512 23.272727C242.106182 23.272727 23.272727 242.082909 23.272727 512c0 269.940364 218.833455 488.727273 488.727273 488.727273 269.917091 0 488.727273-218.786909 488.727273-488.727273 0-269.917091-218.810182-488.727273-488.727273-488.727273"/>
</svg>