<svg fill="currentColor" xmlns="http://www.w3.org/2000/svg" xmlns:xlink="http://www.w3.org/1999/xlink" version="1.1" x="0px" y="0px" viewBox="0 0 100 125" xml:space="preserve"><path d="M95.063,50c0-24.848-20.215-45.063-45.062-45.063C25.153,4.938,4.938,25.152,4.938,50  s20.215,45.063,45.063,45.063C74.848,95.063,95.063,74.848,95.063,50z M35.47,59.73c-1.717,1.713-4.499,1.715-6.216-0.002  c-1.718-1.717-1.718-4.502,0-6.219l17.641-17.637c1.717-1.713,4.5-1.715,6.217,0.002l17.637,17.637c1.717,1.715,1.717,4.502,0,6.217  c-0.858,0.859-1.983,1.287-3.108,1.287s-2.25-0.428-3.108-1.287L50.003,45.199L35.47,59.73z"/>
</svg>