<svg viewBox="0 0 90 112.5" fill="currentColor" xmlns="http://www.w3.org/2000/svg" xmlns:xlink="http://www.w3.org/1999/xlink" version="1.1" x="0px" y="0px" style="enable-background:new 0 0 90 90;" xml:space="preserve"><g>
    <polygon points="25.883789,9.932068 25.883789,14.405334 37.816711,22.79303  "/>
    <polygon points="17.291077,10.810059 17.291077,17.091614 37.580872,25.072449  "/>
    <polygon points="15.901184,18.694031 11.116211,16.811951 11.116211,64.894958 41.092773,76.686646 41.092773,28.602722    15.902283,18.694458  "/>
    <path d="M45.3349,30.001465c-0.108704,0.038757-0.221008,0.063477-0.3349,0.063477h-0.000916   c-0.000977,0-0.001709-0.00061-0.002686-0.00061c-0.11261-0.000366-0.223694-0.024475-0.331299-0.062866   c-0.010193-0.003601-0.021118-0.002014-0.031311-0.00592l-1.541016-0.606079v48.765259   c0,1.067444,0.85553,1.922913,1.907227,1.922913c1.051819,0,1.907288-0.855469,1.907288-1.907288V29.389465l-1.541077,0.606079   C45.356079,29.999451,45.345093,29.997864,45.3349,30.001465z"/>
    <path d="M72.708984,17.091614v-6.281555l-6.696411,4.707092c-0.125549,0.166382-0.293945,0.287964-0.498291,0.35022   l-13.095093,9.205078L72.708984,17.091614z"/><polygon points="64.2276,9.922363 52.289001,22.718872 64.2276,14.327148  "/><polygon points="48.907288,28.602722 48.907288,76.686646 78.883789,64.894958 78.883789,16.811951  "/></g>
</svg>