<svg fill="currentColor" xmlns="http://www.w3.org/2000/svg" xmlns:xlink="http://www.w3.org/1999/xlink" version="1.1" x="0px" y="0px" viewBox="0 0 100 125" style="enable-background:new 0 0 100 100;" xml:space="preserve"><path d="M88.6,62.7c0,0.8,0.5,1.4,1.1,1.4h0.7c0.6,0,1.1-0.6,1.1-1.4V38.8L88.6,40V62.7z"/><path d="M22.4,44.4c0,3.7,0,11.1,0,11.3c0,8.3,12.3,11.9,27.5,11.9s27.5-3.7,27.5-11.9c0-0.3,0-1.6,0-2.1v-9.3l-27.5,9.5L22.4,44.4z  "/><polygon points="96.2,34 49.9,51 3.8,34.2 49.3,19.9 82.9,30 49.9,30 49.9,32.4 90.9,32.4 "/><circle cx="90" cy="62.6" r="2.8"/><path d="M92.2,80.1h-4.4c-0.9,0-1.7-0.6-1.7-1.3L90,62.5l3.9,16.3C93.9,79.6,93.2,80.1,92.2,80.1z"/>
</svg>