<svg fill="currentColor" xmlns="http://www.w3.org/2000/svg" xmlns:xlink="http://www.w3.org/1999/xlink" xml:space="preserve" version="1.1" style="shape-rendering:geometricPrecision;text-rendering:geometricPrecision;image-rendering:optimizeQuality;" viewBox="0 0 423 351.25" x="0px" y="0px" fill-rule="evenodd" clip-rule="evenodd"><defs><style type="text/css">
   
  </style></defs><g><path class="fil0" d="M85 112c3,0 7,0 11,1 14,-26 41,-43 73,-43 15,-41 54,-70 99,-70 65,0 114,56 106,120 82,37 56,161 -35,161 -16,0 -30,-4 -43,-11 -26,15 -58,15 -84,0 -26,15 -59,15 -85,0 -12,7 -27,11 -42,11 -47,0 -85,-38 -85,-84 0,-47 38,-85 85,-85z"/></g>
</svg>