<svg width="20" height="20" fill="currentColor" xmlns="http://www.w3.org/2000/svg" viewBox="0 0 100 125" x="0px" y="0px"><path d="M57.5582 10.5554C55.2841 3.09064 44.7159 3.09062 42.4418 10.5554L35.8657 32.1417C35.7209 32.6168 35.2826 32.9415 34.7859 32.9415H12.9166C5.38633 32.9415 2.12471 42.4757 8.077 47.0881L26.2596 61.1778C26.63 61.4648 26.7845 61.9507 26.648 62.3989L19.8226 84.8035C17.5774 92.1735 26.1304 98.0706 32.2203 93.3516L49.3086 80.1099C49.7156 79.7945 50.2844 79.7945 50.6914 80.1099L67.7797 93.3516C73.8696 98.0706 82.4226 92.1735 80.1774 84.8035L73.352 62.3989C73.2155 61.9507 73.37 61.4648 73.7404 61.1778L91.923 47.0881C97.8753 42.4757 94.6136 32.9415 87.0834 32.9415H65.2141C64.7174 32.9415 64.2791 32.6168 64.1343 32.1417L57.5582 10.5554Z"/></svg>